<?xml version="1.0" encoding="UTF-8"?>
<!-- Generated by Pixelmator Pro 3.3.2 -->
<svg width="682" height="682" viewBox="0 0 682 682" xmlns="http://www.w3.org/2000/svg" xmlns:xlink="http://www.w3.org/1999/xlink">
    <linearGradient id="linearGradient1" x1="3.195653" y1="2.187253" x2="683.434667" y2="683.021333" gradientUnits="userSpaceOnUse">
        <stop offset="1e-05" stop-color="#122134" stop-opacity="1"/>
        <stop offset="1" stop-color="#0b131d" stop-opacity="1"/>
    </linearGradient>
    <path id="Path" fill="url(#linearGradient1)" fill-rule="evenodd" stroke="none" d="M 341.333344 -0.666687 C 529.84668 -0.666687 682.666687 152.15332 682.666687 340.666656 C 682.666687 529.179993 529.84668 682 341.333344 682 C 152.819992 682 7e-06 529.179993 7e-06 340.666656 C 7e-06 152.15332 152.819992 -0.666687 341.333344 -0.666687 Z"/>
    <path id="Path-38" fill="#c2d6f2" fill-rule="evenodd" stroke="none" d="M 341.078674 162.541321 C 341.078674 162.541321 291.61734 162.541321 291.61734 162.541321 C 291.61734 162.541321 280.665314 85.669861 280.665314 85.669861 C 280.665314 85.669861 288.929352 68.582825 288.929352 68.582825 C 288.929352 68.582825 341.078674 68.582825 341.078674 68.582825 C 341.078674 68.582825 341.588013 68.582825 341.588013 68.582825 C 341.588013 68.582825 393.738647 68.582825 393.738647 68.582825 C 393.738647 68.582825 402.001343 85.669861 402.001343 85.669861 C 402.001343 85.669861 391.049316 162.541321 391.049316 162.541321 C 391.049316 162.541321 341.588013 162.541321 341.588013 162.541321 C 341.588013 162.541321 341.078674 162.541321 341.078674 162.541321 Z"/>
    <path id="Path-39" fill="#c2d6f2" fill-rule="evenodd" stroke="none" d="M 341.078674 612.073303 C 341.078674 612.073303 256.662659 499.820007 256.662659 499.820007 C 256.662659 499.820007 293.185333 186.612 293.185333 186.612 C 293.185333 186.612 341.078674 186.612 341.078674 186.612 C 341.078674 186.612 341.588013 186.612 341.588013 186.612 C 341.588013 186.612 389.481323 186.612 389.481323 186.612 C 389.481323 186.612 426.003998 499.820007 426.003998 499.820007 C 426.003998 499.820007 341.588013 612.073303 341.588013 612.073303 C 341.588013 612.073303 341.588013 612.750671 341.588013 612.750671 C 341.588013 612.750671 341.333344 612.411987 341.333344 612.411987 C 341.333344 612.411987 341.078674 612.073303 341.078674 612.073303 Z"/>
</svg>
